<svg xmlns="http://www.w3.org/2000/svg" viewBox="0 0 754.41 472.49"><defs><style>.cls-1{opacity:0.2;}.cls-2{fill:#b3b3b3;}</style></defs><title>Asset 9backgroundgrid</title><g id="Layer_2" data-name="Layer 2"><g id="Layer_1-2" data-name="Layer 1"><g class="cls-1"><path class="cls-2" d="M754.41,472.49H0V0H754.41ZM1,471.52H753.44V1H1Z"/><rect class="cls-2" x="0.49" y="447.94" width="753.44" height="0.97"/><rect class="cls-2" x="0.49" y="424.37" width="753.44" height="0.97"/><rect class="cls-2" x="0.49" y="400.79" width="753.44" height="0.97"/><rect class="cls-2" x="0.49" y="377.21" width="753.44" height="0.97"/><rect class="cls-2" x="0.49" y="353.64" width="753.44" height="0.97"/><rect class="cls-2" x="0.49" y="330.06" width="753.44" height="0.97"/><rect class="cls-2" x="0.49" y="306.49" width="753.44" height="0.97"/><rect class="cls-2" x="0.49" y="282.91" width="753.44" height="0.97"/><rect class="cls-2" x="0.49" y="259.34" width="753.44" height="0.97"/><rect class="cls-2" x="0.49" y="235.76" width="753.44" height="0.97"/><rect class="cls-2" x="0.49" y="212.18" width="753.44" height="0.97"/><rect class="cls-2" x="0.49" y="188.61" width="753.44" height="0.97"/><rect class="cls-2" x="0.49" y="165.03" width="753.44" height="0.97"/><rect class="cls-2" x="0.49" y="141.46" width="753.44" height="0.97"/><rect class="cls-2" x="0.49" y="117.88" width="753.44" height="0.97"/><rect class="cls-2" x="0.49" y="94.3" width="753.44" height="0.97"/><rect class="cls-2" x="0.49" y="70.73" width="753.44" height="0.97"/><rect class="cls-2" x="0.49" y="47.15" width="753.44" height="0.97"/><rect class="cls-2" x="0.49" y="23.58" width="753.44" height="0.97"/><rect class="cls-2" x="730.61" y="0.49" width="0.97" height="471.52"/><rect class="cls-2" x="707.78" y="0.49" width="0.97" height="471.52"/><rect class="cls-2" x="684.94" y="0.49" width="0.97" height="471.52"/><rect class="cls-2" x="662.11" y="0.49" width="0.97" height="471.52"/><rect class="cls-2" x="639.28" y="0.49" width="0.97" height="471.52"/><rect class="cls-2" x="616.45" y="0.49" width="0.97" height="471.52"/><rect class="cls-2" x="593.62" y="0.49" width="0.97" height="471.52"/><rect class="cls-2" x="570.79" y="0.49" width="0.97" height="471.52"/><rect class="cls-2" x="547.96" y="0.49" width="0.97" height="471.52"/><rect class="cls-2" x="525.12" y="0.49" width="0.97" height="471.52"/><rect class="cls-2" x="502.29" y="0.49" width="0.97" height="471.52"/><rect class="cls-2" x="479.46" y="0.49" width="0.97" height="471.52"/><rect class="cls-2" x="456.63" y="0.49" width="0.97" height="471.52"/><rect class="cls-2" x="433.8" y="0.49" width="0.97" height="471.52"/><rect class="cls-2" x="410.97" y="0.49" width="0.97" height="471.52"/><rect class="cls-2" x="388.14" y="0.49" width="0.97" height="471.52"/><rect class="cls-2" x="365.3" y="0.49" width="0.97" height="471.52"/><rect class="cls-2" x="342.47" y="0.49" width="0.97" height="471.52"/><rect class="cls-2" x="319.64" y="0.49" width="0.97" height="471.52"/><rect class="cls-2" x="296.81" y="0.49" width="0.97" height="471.52"/><rect class="cls-2" x="273.98" y="0.49" width="0.97" height="471.52"/><rect class="cls-2" x="251.15" y="0.49" width="0.97" height="471.52"/><rect class="cls-2" x="228.31" y="0.49" width="0.97" height="471.52"/><rect class="cls-2" x="205.48" y="0.49" width="0.97" height="471.52"/><rect class="cls-2" x="182.65" y="0.49" width="0.97" height="471.52"/><rect class="cls-2" x="159.82" y="0.49" width="0.97" height="471.52"/><rect class="cls-2" x="136.99" y="0.49" width="0.97" height="471.52"/><rect class="cls-2" x="114.16" y="0.49" width="0.97" height="471.52"/><rect class="cls-2" x="91.33" y="0.49" width="0.97" height="471.52"/><rect class="cls-2" x="68.49" y="0.49" width="0.97" height="471.52"/><rect class="cls-2" x="45.66" y="0.49" width="0.97" height="471.52"/><rect class="cls-2" x="22.83" y="0.49" width="0.97" height="471.52"/></g></g></g></svg>