<svg xmlns="http://www.w3.org/2000/svg" viewBox="0 0 22.48 23.66"><defs><style>.cls-1{fill:#70b270;}</style></defs><title>Asset 11agric</title><g id="Layer_2" data-name="Layer 2"><g id="Layer_1-2" data-name="Layer 1"><path class="cls-1" d="M4.73,0a8.26,8.26,0,0,1,7.33,4.43,7.69,7.69,0,0,1,6.28-3.25h4.14v3a7.69,7.69,0,0,1-7.69,7.69H13V13h5.91V21.3a2.36,2.36,0,0,1-2.36,2.36H7.1A2.36,2.36,0,0,1,4.73,21.3V13h5.92V10.65H8.28A8.28,8.28,0,0,1,0,2.37V0ZM16.57,15.38H7.1V21.3h9.47ZM20.11,3.55H18.34A5.32,5.32,0,0,0,13,8.87v.6h1.77a5.33,5.33,0,0,0,5.32-5.33ZM4.73,2.37H2.37A5.92,5.92,0,0,0,8.28,8.28h2.37A5.92,5.92,0,0,0,4.73,2.37Z"/></g></g></svg>