<svg xmlns="http://www.w3.org/2000/svg" viewBox="0 0 22.53 22.53"><defs><style>.cls-1{fill:#70b270;}</style></defs><title>Asset 9agric</title><g id="Layer_2" data-name="Layer 2"><g id="Layer_1-2" data-name="Layer 1"><path class="cls-1" d="M5.63,4.51V1.13A1.13,1.13,0,0,1,6.76,0h9A1.13,1.13,0,0,1,16.9,1.13V4.51h4.5a1.12,1.12,0,0,1,1.13,1.12V21.4a1.12,1.12,0,0,1-1.13,1.13H1.13A1.12,1.12,0,0,1,0,21.4V5.63A1.12,1.12,0,0,1,1.13,4.51ZM2.25,16.9v3.38h18V16.9Zm0-2.25h18V6.76h-18ZM7.89,2.25V4.51h6.76V2.25Zm2.25,9h2.25v2.25H10.14Z"/></g></g></svg>