<svg xmlns="http://www.w3.org/2000/svg" viewBox="0 0 23.94 23.94"><defs><style>.cls-1{fill:#70b270;}</style></defs><title>Asset 8agric</title><g id="Layer_2" data-name="Layer 2"><g id="Layer_1-2" data-name="Layer 1"><path class="cls-1" d="M22.74,11.54v11.2a1.2,1.2,0,0,1-1.2,1.2H2.39a1.19,1.19,0,0,1-1.19-1.2V11.54A4.73,4.73,0,0,1,0,8.38V1.2A1.2,1.2,0,0,1,1.2,0H22.74a1.2,1.2,0,0,1,1.2,1.2V8.38A4.78,4.78,0,0,1,22.74,11.54ZM20.35,13a4.82,4.82,0,0,1-1.2.16,4.77,4.77,0,0,1-3.59-1.63,4.77,4.77,0,0,1-7.18,0,4.77,4.77,0,0,1-3.59,1.63A4.7,4.7,0,0,1,3.59,13v8.53H20.35Zm-6-4.63a1.2,1.2,0,0,1,2.4,0,2.39,2.39,0,0,0,4.78,0v-6H2.39v6a2.4,2.4,0,0,0,4.79,0,1.2,1.2,0,1,1,2.39,0,2.4,2.4,0,0,0,4.79,0Z"/></g></g></svg>